<svg width="32" height="32" viewBox="0 0 32 32" fill="none" xmlns="http://www.w3.org/2000/svg">
<rect width="32" height="32" rx="16" fill="currentColor"/>
<rect opacity="0.01" x="6" y="6" width="20" height="20" fill="#EFF0F2"/>
<path fill-rule="evenodd" clip-rule="evenodd" d="M20.2704 9.47656L7.49537 13.1854C7.21224 13.2676 6.96727 13.4473 6.80376 13.6926C6.42087 14.267 6.57616 15.0431 7.1506 15.426L12.6272 19.0764C12.7197 19.138 12.7989 19.2175 12.8602 19.3102L16.3873 24.6451C16.5508 24.8923 16.7969 25.0735 17.0815 25.1561C17.7445 25.3486 18.438 24.9672 18.6305 24.3042L22.3357 11.5418C22.4238 11.2383 22.4238 10.916 22.3357 10.6124C22.079 9.72848 21.1544 9.21992 20.2704 9.47656ZM13.345 17.5515L8.82155 14.536L20.7351 11.0771L17.2809 22.9741L14.4934 18.7601L16.9661 16.2876C17.2916 15.9622 17.2916 15.4346 16.9661 15.1091C16.6407 14.7837 16.1131 14.7837 15.7876 15.1091L13.345 17.5515Z" fill="white"/>
<defs>
<linearGradient id="paint0_linear_397_2894" x1="0" y1="32" x2="32" y2="32" gradientUnits="userSpaceOnUse">
<stop stop-color="#FF5F74"/>
<stop offset="1" stop-color="#FF3C6A"/>
</linearGradient>
</defs>
</svg>
